<svg width="512" height="512" viewBox="0 0 512 512" fill="none" xmlns="http://www.w3.org/2000/svg">
<path d="M107.997 313.025V342H14.6689V317.75C42.3138 272.538 58.7257 244.578 63.9048 233.87C69.1538 223.092 71.7783 214.694 71.7783 208.675C71.7783 204.056 70.9735 200.626 69.3638 198.387C67.8241 196.077 65.4445 194.922 62.2251 194.922C59.0057 194.922 56.5911 196.182 54.9814 198.702C53.4417 201.221 52.6719 206.225 52.6719 213.714V229.881H14.6689V223.687C14.6689 214.169 15.1589 206.68 16.1387 201.221C17.1185 195.692 19.533 190.268 23.3823 184.949C27.2316 179.63 32.2357 175.606 38.3945 172.876C44.5534 170.147 51.937 168.782 60.5454 168.782C77.4123 168.782 90.1499 172.981 98.7583 181.38C107.437 189.708 111.776 200.276 111.776 213.084C111.776 222.812 109.326 233.1 104.427 243.948C99.5981 254.796 85.2858 277.822 61.4902 313.025H107.997ZM224.525 229.566V286.255C224.525 299.133 223.825 308.511 222.425 314.39C221.026 320.269 218.121 325.763 213.712 330.872C209.303 335.981 203.984 339.655 197.755 341.895C191.526 344.135 184.562 345.254 176.864 345.254C166.716 345.254 158.282 344.1 151.563 341.79C144.845 339.41 139.491 335.736 135.501 330.767C131.512 325.798 128.678 320.584 126.998 315.125C125.318 309.596 124.479 300.848 124.479 288.88V229.566C124.479 213.959 125.808 202.271 128.468 194.502C131.197 186.734 136.551 180.505 144.53 175.816C152.578 171.127 162.306 168.782 173.714 168.782C183.023 168.782 191.351 170.427 198.7 173.716C206.048 176.936 211.542 180.89 215.182 185.579C218.821 190.268 221.271 195.552 222.53 201.431C223.86 207.31 224.525 216.688 224.525 229.566ZM182.113 215.289C182.113 206.26 181.658 200.626 180.748 198.387C179.908 196.077 177.879 194.922 174.659 194.922C171.51 194.922 169.41 196.147 168.36 198.597C167.381 200.976 166.891 206.54 166.891 215.289V298.223C166.891 308.091 167.346 314.04 168.255 316.07C169.235 318.099 171.3 319.114 174.449 319.114C177.599 319.114 179.663 317.924 180.643 315.545C181.623 313.165 182.113 307.811 182.113 299.483V215.289ZM267.987 307.356V342H235.968V307.356H267.987ZM359.11 245.733C365.549 247.903 370.343 251.472 373.492 256.441C376.642 261.34 378.216 272.888 378.216 291.084C378.216 304.592 376.677 315.09 373.597 322.579C370.518 329.997 365.199 335.666 357.64 339.585C350.082 343.435 340.388 345.359 328.561 345.359C315.123 345.359 304.555 343.12 296.856 338.641C289.228 334.091 284.189 328.562 281.739 322.054C279.36 315.475 278.17 304.102 278.17 287.935V274.498H320.582V302.107C320.582 309.456 321.002 314.145 321.842 316.175C322.752 318.134 324.711 319.114 327.721 319.114C331.01 319.114 333.18 317.854 334.229 315.335C335.279 312.815 335.804 306.237 335.804 295.599V283.841C335.804 277.332 335.069 272.573 333.6 269.563C332.13 266.554 329.96 264.594 327.091 263.685C324.221 262.705 318.657 262.145 310.399 262.005V237.334C320.477 237.334 326.706 236.95 329.085 236.18C331.465 235.41 333.18 233.73 334.229 231.141C335.279 228.551 335.804 224.492 335.804 218.963V209.515C335.804 203.566 335.174 199.646 333.915 197.757C332.725 195.867 330.835 194.922 328.246 194.922C325.306 194.922 323.277 195.937 322.157 197.967C321.107 199.926 320.582 204.161 320.582 210.669V224.632H278.17V210.145C278.17 193.908 281.879 182.955 289.298 177.286C296.716 171.547 308.509 168.677 324.676 168.677C344.903 168.677 358.62 172.632 365.829 180.54C373.037 188.449 376.642 199.437 376.642 213.504C376.642 223.022 375.347 229.916 372.757 234.185C370.168 238.384 365.619 242.234 359.11 245.733ZM486.031 172.037V199.227H433.436V228.096C440.015 220.328 448.483 216.443 458.841 216.443C470.529 216.443 479.347 219.733 485.296 226.312C491.315 232.82 494.325 245.383 494.325 264V288.25C494.325 300.288 493.73 309.141 492.54 314.81C491.42 320.409 488.971 325.623 485.191 330.452C481.412 335.211 476.128 338.886 469.339 341.475C462.621 343.995 454.397 345.254 444.669 345.254C433.751 345.254 424.128 343.365 415.799 339.585C407.471 335.736 401.557 330.032 398.058 322.474C394.558 314.915 392.809 303.227 392.809 287.41V278.172H435.221V288.775C435.221 299.763 435.606 307.566 436.375 312.186C437.145 316.805 439.805 319.114 444.354 319.114C446.454 319.114 448.133 318.449 449.393 317.12C450.723 315.79 451.423 314.355 451.493 312.815C451.633 311.276 451.773 304.592 451.913 292.764V259.065C451.913 252.697 451.248 248.357 449.918 246.048C448.588 243.738 446.384 242.583 443.304 242.583C441.345 242.583 439.7 243.178 438.37 244.368C437.04 245.558 436.166 246.853 435.746 248.252C435.396 249.582 435.221 252.732 435.221 257.701H393.229L395.013 172.037H486.031Z" fill="white"/>
</svg>
