<svg width="512" height="512" viewBox="0 0 512 512" fill="none" xmlns="http://www.w3.org/2000/svg">
<path d="M156.706 24H278.058L188.198 338.377H247.924L190.369 487.422L336.156 274.307H275.072L328.554 137.751C346.201 139.29 387.683 148.882 412.443 174.945C443.392 207.523 446.921 249.874 445.835 263.72L445.815 263.972C444.706 278.132 441.028 325.072 409.185 369.598C377.15 414.393 339.957 443.17 290.547 466.517C251.019 485.195 207.292 488.236 190.369 487.422C177.881 486.698 149.918 484.055 137.973 479.277C123.042 473.305 102.409 465.432 85.034 440.998C67.659 416.565 64.9442 378.014 66.3016 362.539C67.659 347.065 67.9306 335.663 85.034 277.022C98.7168 230.11 138.516 88.794 156.706 24Z" fill="white"/>
</svg>
