<svg width="512" height="501" viewBox="0 0 512 501" fill="none" xmlns="http://www.w3.org/2000/svg">
<path d="M0 256.562C0 114.867 114.615 0 256 0C397.385 0 512 114.867 512 256.562C512 407.512 395.25 481.789 336.875 500.059C324.325 501.05 320.062 493.433 319.5 489.5C319.688 467.104 319.95 418.475 319.5 403.125C319.05 387.775 308.479 374.146 303.25 369.25C308.479 369.25 323.225 367.838 340.375 362.188C357.525 356.537 376.938 343.917 384.5 338.312C392.438 334 410.287 313.412 418.188 265.562C426.088 217.713 405.229 185.25 393.812 175C404.062 146.65 394.958 117.521 389.125 106.5C372.875 100.9 335.562 121.208 318.938 132.062C310.021 129.938 284.95 125.45 256 124.5C227.05 123.55 201.521 129.146 192.375 132.062C154.325 106.513 129.688 104.375 122.125 106.5C107.725 136.7 113.792 164.75 118.625 175C101.188 189.5 89.6875 221.438 93.6875 265.562C97.6875 309.688 117 328.062 127.25 338.312C137.5 348.562 158.938 357.875 172.5 362.188C183.35 365.638 201.646 368.333 209.438 369.25C197.087 380.4 193.417 396.479 193.125 403.125C183.438 409.062 160.062 412.438 147 408C133.938 403.562 124.125 390.438 122.875 388.562C121.625 386.688 115.875 377.688 114.125 375.375C112.375 373.062 108.938 369.562 105.625 367C102.312 364.438 92.6875 356.562 80 355.812C69.85 355.212 67.6458 358.271 67.8125 359.875C68.7625 364.475 75 369.583 78 371.562C81.85 372.663 87.3958 378.312 89.6875 381C97.3375 387.8 105.667 406.75 108.875 415.375C116.438 427.25 125.812 437 149.312 440.312C168.112 442.963 185.771 440.583 192.25 439.062C192.792 451.333 193.55 478.6 192.25 489.5C190.95 500.4 177.875 500.255 171.5 498.82C71.6352 463.836 0 368.583 0 256.562Z" fill="white"/>
</svg>
