<svg width="512" height="512" viewBox="0 0 512 512" fill="none" xmlns="http://www.w3.org/2000/svg">
<path d="M19.3822 232.921C-9.91994 249.471 0.390062 264.235 9.20783 269.548C32.835 277.914 85.9225 295.866 109.256 300.75C132.589 305.633 150.179 298.715 156.058 294.645C209.19 258.809 319.322 184.355 334.787 173.231C354.118 159.326 380.911 146.778 385.659 151.526C389.457 155.324 381.815 167.579 377.519 173.231C336.031 211.441 248.848 292.542 232.026 311.263C215.205 329.984 225.017 345.065 232.026 350.265C274.984 382.823 369.312 451.194 402.955 464.217C436.598 477.241 452.47 452.913 456.201 439.121C469.428 350.491 497.78 163.735 505.377 125.751C514.873 78.2705 513.516 62.6699 505.377 50.4607C498.865 40.6934 478.471 44.13 469.088 47.0693C331.396 102.124 48.6843 216.37 19.3822 232.921Z" fill="white"/>
</svg>
